<svg width="891" height="404" viewBox="0 0 891 404" fill="none" xmlns="http://www.w3.org/2000/svg">
<rect width="891" height="404" rx="15" fill="#0D1117"/>
<path d="M309.24 228V178.08H337.96V182.96H314.84V198.64H333.48V203.52H314.84V228H309.24ZM405.8 228.8C402.227 228.8 398.947 227.92 395.96 226.16C393.027 224.347 390.68 221.573 388.92 217.84C387.213 214.053 386.333 209.227 386.28 203.36C386.28 198.453 386.84 194.373 387.96 191.12C389.133 187.813 390.653 185.2 392.52 183.28C394.387 181.307 396.44 179.893 398.68 179.04C400.973 178.187 403.24 177.76 405.48 177.76C409.107 177.76 412.2 178.667 414.76 180.48C417.32 182.24 419.24 184.613 420.52 187.6L415.72 189.84L415 190.16L414.76 189.6C414.92 189.173 414.92 188.8 414.76 188.48C414.6 188.107 414.307 187.547 413.88 186.8C412.547 184.987 411.16 183.787 409.72 183.2C408.333 182.56 406.867 182.24 405.32 182.24C401.107 182.24 397.773 184.08 395.32 187.76C392.92 191.387 391.72 196.453 391.72 202.96C391.72 207.12 392.333 210.8 393.56 214C394.84 217.147 396.52 219.6 398.6 221.36C400.68 223.12 403 224 405.56 224C407.587 224 409.48 223.467 411.24 222.4C413.053 221.28 414.52 219.787 415.64 217.92L419.8 220.64C418.2 223.307 416.28 225.333 414.04 226.72C411.8 228.107 409.053 228.8 405.8 228.8ZM479.64 228V183.12H465.48V178.08H500.04V183.12H485.32V228H479.64ZM548.28 178.16H554.84V178.72C554.52 179.04 554.307 179.387 554.2 179.76C554.147 180.133 554.12 180.773 554.12 181.68V223.2H578.12V228H548.28V178.16Z" fill="white"/>
</svg>
